# xmcd
#
# Track frame offsets:
#	150
#	15356
#	29964
#	43746
#	56826
#	74330
#	88327
#	102138
#	117734
#	133365
#	148592
#	167456
#	183165
#	197605
#	214958
#	228171
#	248861
#	265354
#	283395
#
# Disc length: 3980 seconds
#
# Revision: 0
# Processed by: cddbd v1.5.2PL0 Copyright (c) Steve Scherf et al.
# Submitted via: audiograbber 1.83.01
#
DISCID=2c0f8a13
DTITLE=Various Artist - Promo Only Country Radio March 2017
DYEAR=2017
DGENRE=Country
TTITLE0=Kristian Bush - Sing Along
TTITLE1=Chelsea Bain - Drinkin' Alone
TTITLE2=Florida Georgia Line ft. Backstreet Boys - God, Your Mama And Me
TTITLE3=Cole Swindell ft. Dierks Bentley - Flatliner
TTITLE4=Levi Hart - The Man I'm Proud To Be
TTITLE5=Adam Craig - Just A Phase
TTITLE6=Candy Fernaux - Beauty Don't Come Cheap (Promo Only Clean Edit)
TTITLE7=Jamie Lee Thurston - Givin' Up Breathin'
TTITLE8=Bailey Brian - Own It
TTITLE9=Rascal Flatts - Yours If You Want It
TTITLE10=Savanna Jones - I Am Real
TTITLE11=Ned LeDoux - Brother Highway
TTITLE12=The Scott Brothers ft. Eric Paslay - My House
TTITLE13=Brooke Eden - Act Like You Don't
TTITLE14=Tony Jackson - Nashville Cats
TTITLE15=Ashleigh Dallas - Lighthouse
TTITLE16=Lennon and Maisy - Up And Up
TTITLE17=Aleyce Simmonds - Defeated
TTITLE18=Ricki Page - Future Of The World
EXTD=
EXTT0=
EXTT1=
EXTT2=
EXTT3=
EXTT4=
EXTT5=
EXTT6=
EXTT7=
EXTT8=
EXTT9=
EXTT10=
EXTT11=
EXTT12=
EXTT13=
EXTT14=
EXTT15=
EXTT16=
EXTT17=
EXTT18=
PLAYORDER=
